<svg width="45" height="32" viewBox="0 0 45 32" fill="none" xmlns="http://www.w3.org/2000/svg">
<g id="Frame 21">
<path id="T" d="M2.53589 5.33998V3.41835C2.53589 2.85957 2.69272 2.3962 3.00639 2.02823C3.32006 1.66026 3.71505 1.47627 4.19137 1.47627H26.3051C26.7814 1.47627 27.1764 1.66026 27.49 2.02823C27.8037 2.3962 27.9605 2.85957 27.9605 3.41835V5.33998C27.9605 5.89875 27.8037 6.36212 27.49 6.73009C27.1764 7.08444 26.7814 7.26161 26.3051 7.26161C26.3051 7.26161 21.3117 6.05378 18.533 7.26161C17.7042 7.62187 17.2159 7.99702 16.8811 9.07656C16.3888 10.6635 16.6456 12.351 17.7609 14.0162C18.8473 15.6382 23.8319 21.0491 21.3725 20.4399C20.3285 20.1813 20.3262 20.1203 19.1883 20.0172C18.1998 19.9275 17.1408 20.2459 16.6753 21.074C14.4951 24.952 18.4367 28.7776 18.4367 28.7776C18.883 29.1064 21.1377 30.5391 20.8324 30.5391C20.5187 30.8934 17.3481 30.7914 16.895 30.7914H13.6014C13.1484 30.7914 12.7592 30.6142 12.4339 30.2598C12.1202 29.8919 11.9634 29.4421 11.9634 28.9106V7.26161H4.19137C3.71505 7.26161 3.32006 7.08444 3.00639 6.73009C2.69272 6.36212 2.53589 5.89875 2.53589 5.33998Z" fill="white"/>
<path id="S" d="M16.7955 23.1185C16.7955 22.3144 16.9988 21.742 17.4054 21.4013C17.812 21.0469 18.207 20.8698 18.5904 20.8698H20.0573C21.2715 21.2242 22.5054 21.5376 23.0514 22.8732C23.5974 24.2088 24.8231 24.8766 26.7283 24.8766L32.8275 25.0197C34.8721 25.0197 35.8945 24.236 35.8945 22.6687C35.8945 21.4831 34.6456 20.5495 32.1478 19.8681C31.0326 19.5546 29.8011 19.248 28.4535 18.9481C27.1059 18.6347 25.7641 18.2463 24.4281 17.7829C23.1037 17.3195 22.7931 17.3325 21.6779 16.7056C20.5626 16.0786 19.0633 14.5782 18.3663 13.4879C17.6809 12.384 17.0922 11.2869 17.4054 9.84752C18.4335 5.12184 26.1066 8.69657 27.8078 7.85117C30.8846 2.0735 26.6351 1.14238 28.0876 1.1424C29.54 1.14243 32.5138 1.26506 32.5138 1.26506C34.8954 1.26506 37.0388 1.98738 38.944 3.43201C40.8609 4.86301 41.8193 6.65517 41.8193 8.80849C41.8193 9.61257 41.616 10.1918 41.2094 10.5461C40.8028 10.9005 40.4136 11.0776 40.0419 11.0776H37.9682C36.9226 11.0776 36.1268 10.4098 35.5808 9.07424C35.0348 7.72501 33.8091 7.05039 31.9039 7.05039L27.8078 7.85117C27.2115 8.14751 23.5916 7.71139 23.5916 9.27867C23.5916 10.1373 24.2364 10.8391 25.5259 11.3843C26.8271 11.9294 28.3954 12.4132 30.231 12.8357C32.0781 13.2446 33.9311 13.742 35.7899 14.3281C37.6487 14.9141 39.2228 15.8817 40.5124 17.2309C41.8135 18.5665 42.4641 20.236 42.4641 22.2394C42.4641 24.9788 41.6276 27.0912 39.9547 28.5767C38.2934 30.0486 35.4414 30.7845 31.3985 30.7845L26.1184 30.6619C23.7369 30.6619 21.5876 29.9464 19.6708 28.5154C17.7539 27.0708 16.7955 25.2718 16.7955 23.1185Z" fill="white"/>
</g>
</svg>
